<svg xmlns="http://www.w3.org/2000/svg"><style>:root svg:not(:target){display:none}</style><svg viewBox="0 0 32 12" fill="none" id="arrow"><path stroke="#000" stroke-width="2" d="M0 6h18"></path><path d="m24 6-6.75 5.2v-10.4l6.75 5.2Z" fill="#000"></path></svg><svg viewBox="0 0 268 112" fill="none" id="cat-pro"><path d="M246.24 11.51a30.4 30.4 0 0 1 9-9.2c2-1.4 3.2-1.4 4.4 1.2 1.6 3.8 3 7.8 1.8 12a4.59 4.59 0 0 0 .8 4.2c1.2 1.6 2.2 3.2 3.2 4.6a12.54 12.54 0 0 1 1.8 12.4 10.86 10.86 0 0 0-.4 6.2c.4 1.98.4 4.02 0 6a7.5 7.5 0 0 1-5.4 6.4 10.42 10.42 0 0 0-6.4 4 2.09 2.09 0 0 1-1.8 1c-2.4.4-8.4-5-8.4-7.4v-1.2c.2-7.2-.2-7.8-6.8-10.8a8.78 8.78 0 0 1-3.6-2.4c-1.2-1.6-2.8-1.4-4.6-.8-1.8.6-2.8 1.8-2.6 3.8.6 4.85.8 9.73.6 14.6.01.56.15 1.1.4 1.6 6.2 9 8.6 19.6 11.6 29.8 2.4 7.8 6.8 12 14.8 12.6 1.28.1 2.55.3 3.8.6a8.32 8.32 0 0 1 6.8 6.4c1.4 4.2.6 5.2-3.6 5.2h-13a6.48 6.48 0 0 1-4.6-1.6 23.39 23.39 0 0 0-6.8-4 14.53 14.53 0 0 1-6.8-5.2 57.17 57.17 0 0 0-8-9c-5.6-5.8-11.6-11.4-16.8-17.4a22.77 22.77 0 0 1-6.4-15.2c0-1.8-.4-2.6-2.4-1.8-.6.38-1.3.6-2 .6-5.6 0-8.4 3.4-10.4 8.4-1.8 4.2-4.2 8.2-6.4 12.4a20.8 20.8 0 0 0-2 8.4c0 4.8 1.2 6.4 5.6 8 2.8 1 5.4 2 6.8 4.8 1.6 3.2 1.2 4-2.2 4.2h-13.6a3.76 3.76 0 0 1-3.8-2.2l-3.6-6a12.1 12.1 0 0 1-1.4-10.8c.86-3.47.93-7.1.2-10.6a16.84 16.84 0 0 1 3.4-14c1.2-1.4 1.2-2-.8-2.4a100.13 100.13 0 0 1-23.74-8.25.2.2 0 0 1-.06-.15c-6.4-2.4-7.6-2-9.4 4.6-1.6 5.6-3.2 11.2-4.4 17-1.4 6.4.2 12.4 2.2 18.4.8 2.4 3.2 2.2 5 2.8 4 1.2 7.4 2.8 9 7 1.4 3.2 1.2 3.6-2.2 3.6-3.4 0-6.8-.2-10.4 0-3.04.06-6-.93-8.4-2.8-9.6-6.4-12.4-16.2-13.2-26.8-.4-6.6-4-11.8-8.2-16.8-.8-1-1.6-1.4-2.8-.6a88.62 88.62 0 0 1-13.4 6 53.42 53.42 0 0 0-24.4 17.6 21.26 21.26 0 0 0-4.4 10.2c-.6 3.6.4 5.2 4 6.2s5.4 3 5.8 6.8c.2 1.6-.4 2.4-2 2.4h-16.2a3.3 3.3 0 0 1-2.6-1.6c-2.52-3.1-3.86-7-3.8-11-.1-6.9.5-13.8 1.8-20.6a12.6 12.6 0 0 1 6.8-9.6c11.8-5.6 18-16.2 23.6-27.2 1.2-2.2.2-2.6-1.8-2.4-5.6.78-10.9 2.98-15.4 6.4-5.9 4.3-11.45 9.05-16.6 14.2a33.34 33.34 0 0 1-20.6 9.8c-14.6.8-21.4-7.4-20.8-20.6.13-4.5 1.83-8.81 4.8-12.2a8.5 8.5 0 0 1 9-3c3 .8 3.8 2.4 2.6 5.4-.6 1.2-1.4 2.2-2 3.4a15 15 0 0 0-2 4c-2.2 6 .8 10.2 7 10.8 6.6.6 12-2.2 17-6.2a89.88 89.88 0 0 0 16-16.6 41.58 41.58 0 0 1 28.8-16.2c4.6-.6 8.6-2.6 13-3.8a83.01 83.01 0 0 1 25.4-3.6 26 26 0 0 0 11.6-2.2c9.8-4 20-4 30.2-2 8 1.6 16 3.6 23.8 5.6 4.64.87 9.41.73 14-.4a135.6 135.6 0 0 1 26.8-4c5.92-.28 11.83.88 17.2 3.4 4 1.8 4 1.8 3 5.6Z" fill="#000"></path></svg><svg fill="none" viewBox="0 0 36 50" id="cat-slim"><path fill="#000" d="M28.2 0h-.2q-.5.29-.74.82a8 8 0 0 0-.67 1.76.84.84 0 0 1-.76.69 3.8 3.8 0 0 0-2.69 1.95q-.56 1-.95 2.06c-.73 1.9-1.29 3.85-1.98 5.77-.32.87-.34.87-1.32.87-1.16 0-1.08-.18-1.1 1.1 0 .41.13.62.56.6.13 0 .33-.07.39.1s-.13.26-.23.36a4.6 4.6 0 0 1-2.23 1.26c-.97.26-1.97.47-2.92.79-2.45.82-4.7 1.96-6.46 3.9a14 14 0 0 0-2.44 4.04c-1.89 4.46-2.8 9.15-3.51 13.88a97 97 0 0 0-.75 6.7c-.1 1.1-.2 2.23-.2 3.35h17.14q.04-.35-.12-.66a2.6 2.6 0 0 0-1.97-1.58c-.36-.08-.4-.2-.18-.48q.54-.73.82-1.6c.84-2.47 1.16-5.06 1.57-7.62q.35-2.96 1.77-5.59a11 11 0 0 1 2.87-3.28c.43-.32.45-.32.52.23q.06.55.09 1.11.23 3.66-.1 7.31-.3 2.83-.07 5.67.3 3.3 1.16 6.49h6.84a2.8 2.8 0 0 0-2.18-2.29q-.97-.15-1.93.1c-.31.08-.44 0-.46-.33q-.32-4.11.51-8.16a92 92 0 0 0 1.57-9.37c.14-1.27.54-2.5 1.18-3.6.6-1.1 1.14-2.23 1.74-3.33a3 3 0 0 0 .22-2.67q-.2-.56-.44-1.1-.79-1.5-1.5-3c-.26-.52-.2-.59.36-.6.84 0 .84 0 .86-.85v-.34c0-.35-.14-.55-.52-.51h-.78q-.52.02-.37-.52a3.2 3.2 0 0 1 2.64-2.28 11 11 0 0 1 3.4.22.5.5 0 0 0 .65-.33l.66-1.55a.5.5 0 0 0-.05-.58c-1.65-2.1-3.43-4.05-5.87-5.3a.8.8 0 0 1-.45-.58q-.2-1.11-.65-2.14a2 2 0 0 0-.73-.89"></path></svg><svg viewBox="0 0 20 20" fill="none" id="close-mobile"><path transform="matrix(.68659 -.72705 .68659 .72705 2.002 20)" stroke="#000" stroke-width="1.5" d="M0-.75h24.76"></path><path transform="matrix(.68659 .72705 -.68659 .72705 1 2)" stroke="#000" stroke-width="1.5" d="M0-.75h24.76"></path></svg><svg viewBox="0 0 78 81" fill="none" id="gift"><path d="M64.02 34.73h-49.99a3.18 3.18 0 0 1-3.18-3.16v-9.48a3.18 3.18 0 0 1 3.18-3.16h49.98a3.17 3.17 0 0 1 3.19 3.16v9.48a3.17 3.17 0 0 1-3.18 3.16Zm-49.99-13.38c-.4 0-.74.34-.74.74v9.48c0 .4.33.73.74.73h49.98c.41 0 .75-.33.75-.73v-9.48c0-.4-.34-.74-.75-.74h-49.98Z" fill="#fff"></path><path d="M57.04 67.18h-36.04a6.11 6.11 0 0 1-6.13-6.1v-27.56a1.22 1.22 0 1 1 2.44 0v27.57a3.68 3.68 0 0 0 3.69 3.66h36.04a3.68 3.68 0 0 0 3.7-3.66v-27.57a1.22 1.22 0 1 1 2.44 0v27.57a6.11 6.11 0 0 1-6.14 6.09Z" fill="#fff"></path><path d="M39.02 67.18c-.67 0-1.22-.55-1.22-1.21v-32.45a1.22 1.22 0 1 1 2.44 0v32.44c0 .67-.54 1.22-1.22 1.22Zm-15.21-45.83a7.81 7.81 0 0 1-3.17-10.6 7.9 7.9 0 0 1 10.66-3.16c5.82 3.13 8.96 11.87 9.09 12.24l-2.3.8c-.03-.08-2.96-8.23-7.95-10.9a5.45 5.45 0 0 0-7.36 2.17 5.4 5.4 0 0 0 2.2 7.32l-1.17 2.13Z" fill="#fff"></path><path d="m54.23 21.35-1.16-2.13a5.38 5.38 0 0 0-1.03-9.92 5.42 5.42 0 0 0-4.14.42c-4.98 2.68-7.91 10.83-7.94 10.9l-2.3-.8c.13-.37 3.27-9.1 9.08-12.23a7.86 7.86 0 0 1 10.67 3.16 7.79 7.79 0 0 1-3.17 10.6Zm7.72 29.6h-45.86c-.67 0-1.22-.54-1.22-1.21 0-.67.55-1.21 1.22-1.21h45.86c.67 0 1.22.54 1.22 1.21 0 .67-.55 1.21-1.22 1.21Z" fill="#fff"></path></svg><svg viewBox="0 0 80 80" fill="none" id="green-ellipse"><rect width="80" height="80" fill="#68B738"></rect></svg><svg viewBox="0 0 24 24" fill="none" id="icon-burger"><path stroke="#000" stroke-width="2" d="M0 3h24m-24 8h24m-24 8h24"></path></svg><svg fill="none" viewBox="0 0 26 32" id="icon-change"><path fill="#fff" d="M5.53 0c-1.06 0-1.06 1.6 0 1.6h6.64v1.6c-6.8.45-12.17 6.28-12.17 13.39 0 4.04 1.74 7.68 4.49 10.13.48.43.54 1.18.1 1.65l-1.52 1.56c-.75.7.36 1.76 1.03 1l2-2.04c.34-.34.86-.42 1.3-.21a12.6 12.6 0 0 0 11.05.06c.42-.21.96-.13 1.3.21l1.93 1.99c.68.64 1.65-.32 1.04-1l-1.45-1.5c-.44-.45-.38-1.2.11-1.64a13.5 13.5 0 0 0 4.59-10.22c0-7.11-5.4-12.95-12.21-13.36v-1.63h6.63c1.06 0 1.06-1.59 0-1.59zm-4.1 16.57c0-6.57 5.17-11.89 11.55-11.89 6.37 0 11.54 5.32 11.54 11.9s-5.17 11.9-11.54 11.9-11.55-5.32-11.55-11.9m10.75-8.14c0-1.1 1.65-1.1 1.65 0v8.69a.85.85 0 0 1-.85.85.8.8 0 0 1-.8-.8zm-4.98 2.62a1.16 1.16 0 0 0 0-2.31 1.16 1.16 0 0 0 0 2.3zm11.54 0a1.16 1.16 0 0 0 0-2.31 1.16 1.16 0 0 0 0 2.3zm-10.37 12.67c0 1.54-2.32 1.54-2.32 0s2.32-1.54 2.32 0m4.61 3.46a1.16 1.16 0 1 0 .22-2.3 1.16 1.16 0 0 0-.22 2.3m-8.08-10.45a1.16 1.16 0 1 1-2.3.23 1.16 1.16 0 0 1 2.3-.23m17.3 1.16a1.16 1.16 0 1 0 .23-2.3 1.16 1.16 0 0 0-.22 2.3m-2.3 5.84c0 1.53-2.31 1.53-2.31 0 0-1.55 2.31-1.55 2.31 0"></path></svg><svg fill="none" viewBox="0 0 26 32" id="icon-clock"><path fill="#fff" d="M5.53 0c-1.06 0-1.06 1.6 0 1.6h6.64v1.6c-6.8.45-12.17 6.28-12.17 13.39 0 4.04 1.74 7.68 4.49 10.13.48.43.54 1.18.1 1.65l-1.52 1.56c-.75.7.36 1.76 1.03 1l2-2.04c.34-.34.86-.42 1.3-.21a12.6 12.6 0 0 0 11.05.06c.42-.21.96-.13 1.3.21l1.93 1.99c.68.64 1.65-.32 1.04-1l-1.45-1.5c-.44-.45-.38-1.2.11-1.64a13.5 13.5 0 0 0 4.59-10.22c0-7.11-5.4-12.95-12.21-13.36v-1.63h6.63c1.06 0 1.06-1.59 0-1.59zm-4.1 16.57c0-6.57 5.17-11.89 11.55-11.89 6.37 0 11.54 5.32 11.54 11.9s-5.17 11.9-11.54 11.9-11.55-5.32-11.55-11.9m10.75-8.14c0-1.1 1.65-1.1 1.65 0v8.69a.85.85 0 0 1-.85.85.8.8 0 0 1-.8-.8zm-4.98 2.62a1.16 1.16 0 0 0 0-2.31 1.16 1.16 0 0 0 0 2.3zm11.54 0a1.16 1.16 0 0 0 0-2.31 1.16 1.16 0 0 0 0 2.3zm-10.37 12.67c0 1.54-2.32 1.54-2.32 0s2.32-1.54 2.32 0m4.61 3.46a1.16 1.16 0 1 0 .22-2.3 1.16 1.16 0 0 0-.22 2.3m-8.08-10.45a1.16 1.16 0 1 1-2.3.23 1.16 1.16 0 0 1 2.3-.23m17.3 1.16a1.16 1.16 0 1 0 .23-2.3 1.16 1.16 0 0 0-.22 2.3m-2.3 5.84c0 1.53-2.31 1.53-2.31 0 0-1.55 2.31-1.55 2.31 0"></path></svg><svg fill="none" viewBox="0 0 25 30" id="icon-cutlery"><path fill="#fff" fill-rule="evenodd" d="M18.62.08a1 1 0 0 1 1.09.21c.9.91 2.1 2.88 3.06 5.92a43 43 0 0 1 1.73 12.79 1 1 0 0 1-1 1h-3.5v9a1 1 0 1 1-2 0v-28a1 1 0 0 1 .62-.92m1.38 17.92h2.5a40 40 0 0 0-1.64-11.19 22 22 0 0 0-.86-2.3zm-14-18a1 1 0 0 1 1 1v28a1 1 0 1 1-2 0v-28a1 1 0 0 1 1-1" clip-rule="evenodd"></path><path fill="#fff" fill-rule="evenodd" d="M1.5 0a1 1 0 0 1 1 1v5.5c0 .56.2 1.32.7 1.92.48.56 1.31 1.08 2.8 1.08a1 1 0 1 1 0 2 5.4 5.4 0 0 1-4.33-1.8 5 5 0 0 1-1.17-3.2v-5.5a1 1 0 0 1 1-1" clip-rule="evenodd"></path><path fill="#fff" fill-rule="evenodd" d="M10.5 0a1 1 0 0 0-1 1v5.5c0 .56-.2 1.32-.7 1.92-.48.56-1.31 1.08-2.8 1.08a1 1 0 0 0 0 2 5.4 5.4 0 0 0 4.33-1.8 5 5 0 0 0 1.17-3.2v-5.5a1 1 0 0 0-1-1" clip-rule="evenodd"></path></svg><svg fill="none" viewBox="0 0 25 28" id="icon-food"><path fill="#fff" d="M24.78.77a.95.95 0 0 0-.92-.77c-4.94.03-16.96.92-21.8 8.38-2.51 3.88-2.73 8.91-.64 14.96l.07.13a26 26 0 0 0-1.04 3.32 1 1 0 0 0 .72 1.19l.2.02c.43 0 .82-.32.91-.79.02-.1 2.4-10.37 10.85-16.38.44-.3.55-.93.26-1.38a.9.9 0 0 0-1.3-.28c-4.78 3.4-7.73 8-9.47 11.65-1.24-4.57-.91-8.37.99-11.3 3.74-5.76 12.62-7.15 17.98-7.45-1.15 1.8-2.41 5.1-2.41 10.93q0 4.7-2.47 7.14c-2.62 2.6-6.88 2.83-10 2.58-.5-.04-.96.38-1 .93s.35 1.03.87 1.07q.93.08 1.98.08c3.17 0 6.87-.66 9.43-3.2 2.03-2 3.06-4.9 3.06-8.6 0-9.1 3.22-11.1 3.23-11.1.4-.21.6-.68.5-1.13"></path></svg><svg fill="none" viewBox="0 0 80 83" id="icon-gift"><path fill="#fff" d="M65.66 35.83h-51.27a3.27 3.27 0 0 1-3.26-3.26v-9.78c0-1.8 1.46-3.26 3.26-3.26h51.27c1.8 0 3.26 1.47 3.26 3.26v9.78c0 1.8-1.46 3.26-3.26 3.26m-51.27-13.8a.77.77 0 0 0-.76.76v9.78c0 .42.34.76.76.76h51.27c.42 0 .76-.34.76-.76v-9.78a.77.77 0 0 0-.76-.76z"></path><path fill="#fff" d="M58.5 69.3h-36.95a6.3 6.3 0 0 1-6.28-6.27v-28.45a1.25 1.25 0 0 1 2.5 0v28.45c0 2.08 1.7 3.78 3.78 3.78h36.95c2.08 0 3.78-1.7 3.78-3.78v-28.45a1.25 1.25 0 0 1 2.5 0v28.45a6.3 6.3 0 0 1-6.28 6.28"></path><path fill="#fff" d="M40.02 69.3c-.69 0-1.25-.55-1.25-1.24v-33.48a1.25 1.25 0 0 1 2.5 0v33.48c0 .69-.56 1.25-1.25 1.25m-15.6-47.28a8.08 8.08 0 0 1 7.69-14.2c5.96 3.23 9.18 12.24 9.31 12.62l-2.36.83c-.03-.08-3.03-8.48-8.14-11.25a5.58 5.58 0 0 0-5.3 9.8z"></path><path fill="#fff" d="m55.62 22.03-1.19-2.2a5.54 5.54 0 0 0 2.25-7.55 5.53 5.53 0 0 0-7.55-2.25c-5.1 2.77-8.12 11.17-8.15 11.25l-2.36-.83c.14-.38 3.36-9.39 9.32-12.62a8 8 0 0 1 6.14-.64c2.07.62 3.77 2 4.8 3.9a8 8 0 0 1 .64 6.14 8 8 0 0 1-3.9 4.8m7.92 30.54h-47.04a1.25 1.25 0 0 1 0-2.5h47.03a1.25 1.25 0 0 1 0 2.5"></path></svg><svg fill="none" viewBox="0 0 25 28" id="icon-leaf"><path fill="#fff" d="M24.78.77a.95.95 0 0 0-.92-.77c-4.94.03-16.96.92-21.8 8.38-2.51 3.88-2.73 8.91-.64 14.96l.07.13a26 26 0 0 0-1.04 3.32 1 1 0 0 0 .72 1.19l.2.02c.43 0 .82-.32.91-.79.02-.1 2.4-10.37 10.85-16.38.44-.3.55-.93.26-1.38a.9.9 0 0 0-1.3-.28c-4.78 3.4-7.73 8-9.47 11.65-1.24-4.57-.91-8.37.99-11.3 3.74-5.76 12.62-7.15 17.98-7.45-1.15 1.8-2.41 5.1-2.41 10.93q0 4.7-2.47 7.14c-2.62 2.6-6.88 2.83-10 2.58-.5-.04-.96.38-1 .93s.35 1.03.87 1.07q.93.08 1.98.08c3.17 0 6.87-.66 9.43-3.2 2.03-2 3.06-4.9 3.06-8.6 0-9.1 3.22-11.1 3.23-11.1.4-.21.6-.68.5-1.13"></path></svg><svg fill="none" viewBox="0 0 26 29" id="icon-powder"><path fill="#fff" d="M10.86 0c-1.63 0-2.9 1.37-2.9 3.1s1.27 3.1 2.9 3.1 2.9-1.37 2.9-3.1-1.27-3.1-2.9-3.1m0 1.19c1 0 1.72.84 1.72 1.91 0 1-.79 1.91-1.72 1.91-1 0-1.72-.84-1.72-1.91 0-1 .78-1.91 1.72-1.91m-10.86 23.7c0 1.19.4 2.19 1.36 3 1 .87 2.17.8 2.17.8h19c.78 0 1.82-.39 2.63-1.47.84-1 .79-2.37.79-2.37v-17.32c0-.44-.11-.6-.74-.6-.64 0-.7.27-.7.6v17.31a2.5 2.5 0 0 1-.73 1.74c-.74.63-1.45.54-1.45.54s-18.1 0-19-.02c-.35-.07-.91-.2-1.46-.92-.5-.72-.4-1.64-.4-1.64v-17.32c0-.46-.24-.64-.73-.64q-.74-.01-.74.59zm16.3-16.41c-1.1.24-2.18.38-4.26 2.37s-3.62 1.91-5.16 1.82-3.17-1.55-3.44-1.91c-.34-.36-.9-.12-1.09.12-.15.23-.15.64.11 1 1.27 1.18 2.45 2.1 4.7 2.28a7.5 7.5 0 0 0 5.9-2.28c1.44-1.46 2.16-1.73 3.25-1.91a6.3 6.3 0 0 1 5.07 1.27c1 1.1 1.26.79 1.54.48.54-.72-.23-1.28-1.09-1.92a7.2 7.2 0 0 0-5.52-1.28zm-9.06 7.2c-1.18 0-2.08 1-2.08 2.28s.9 2.28 2.08 2.28 2.08-1 2.08-2.28-.9-2.28-2.08-2.28m11.77.79c-1.54 0-2.8 1.36-2.8 3 0 1.65 1.26 3.01 2.8 3.01s2.8-1.36 2.8-3c0-1.65-1.26-3.01-2.8-3.01m0 1.45c.8 0 1.44.7 1.44 1.55 0 .87-.65 1.55-1.44 1.55-.8 0-1.45-.7-1.45-1.55s.65-1.55 1.45-1.55"></path></svg><svg fill="none" viewBox="0 0 25 30" id="icon-replace"><path fill="#fff" fill-rule="evenodd" d="M18.62.08a1 1 0 0 1 1.09.21c.9.91 2.1 2.88 3.06 5.92a43 43 0 0 1 1.73 12.79 1 1 0 0 1-1 1h-3.5v9a1 1 0 1 1-2 0v-28a1 1 0 0 1 .62-.92m1.38 17.92h2.5a40 40 0 0 0-1.64-11.19 22 22 0 0 0-.86-2.3zm-14-18a1 1 0 0 1 1 1v28a1 1 0 1 1-2 0v-28a1 1 0 0 1 1-1" clip-rule="evenodd"></path><path fill="#fff" fill-rule="evenodd" d="M1.5 0a1 1 0 0 1 1 1v5.5c0 .56.2 1.32.7 1.92.48.56 1.31 1.08 2.8 1.08a1 1 0 1 1 0 2 5.4 5.4 0 0 1-4.33-1.8 5 5 0 0 1-1.17-3.2v-5.5a1 1 0 0 1 1-1" clip-rule="evenodd"></path><path fill="#fff" fill-rule="evenodd" d="M10.5 0a1 1 0 0 0-1 1v5.5c0 .56-.2 1.32-.7 1.92-.48.56-1.31 1.08-2.8 1.08a1 1 0 0 0 0 2 5.4 5.4 0 0 0 4.33-1.8 5 5 0 0 0 1.17-3.2v-5.5a1 1 0 0 0-1-1" clip-rule="evenodd"></path></svg><svg viewBox="0 0 28 22" fill="none" id="icon-telegram"><path fill-rule="evenodd" clip-rule="evenodd" d="M23.46 3.15c.18.15.27.38.23.61l-2.63 15.76a.66.66 0 0 1-1.01.44l-7.88-5.25a.66.66 0 0 1-.15-.96l2.61-3.26-4.36 2.9a.66.66 0 0 1-.65.05l-5.26-2.63a.66.66 0 0 1 .08-1.2l18.38-6.57a.66.66 0 0 1 .64.11Zm-17.13 7.17 3.53 1.77 7.56-5.04a.66.66 0 0 1 .88.96l-4.8 6 6.43 4.3 2.28-13.66-15.88 5.67Z" fill="#666"></path></svg><svg fill="none" viewBox="0 0 28 22" id="icon-vk"><path fill="#666" d="M1 5.34q0-1.29 1.55-1.38l3.97.02q.4 0 .53.38.6 1.89 1.37 3.25.76 1.38 1.99 3.16.1.23.34.23.19 0 .3-.18l.07-.28.03-4.35q0-.45-.23-.6t-.83-.23q-.48-.07-.48-.55 0-.1.02-.15.57-1.63 3.2-1.63l1.5-.03q1 0 1.67.48t.67 1.5v5.72q.18.12.34.12.4 0 .7-.45 2.92-3.87 3.17-5.18 0-.03.05-.13.19-.38.61-.65.43-.28.75-.38a1 1 0 0 1 .24-.05h4.13l.26.03q.53 0 .83.47.1.15.15.33a2 2 0 0 1 .06.55v.18a6 6 0 0 1-.94 2.2q-.75 1.17-1.93 2.53t-1.47 1.78q-.24.3-.24.56 0 .2.21.45l3.9 4.63q.3.4.31.88 0 .57-.48.95t-1.14.43l-.46.02h-4.04l-.11.02-.1.01q-.6 0-1.1-.48-.19-.2-2.5-2.97a1 1 0 0 0-.38-.32 39 39 0 0 0-.53 2.24l-.08.42a1.4 1.4 0 0 1-1.12 1.06l-.37.02h-2.61q-2.22 0-4.41-1.9a19 19 0 0 1-3.96-4.95 48 48 0 0 1-3.28-7.05 2 2 0 0 1-.13-.73m16.01 6.51q-.55 0-1.01-.29a.9.9 0 0 1-.45-.79v-5.77q0-.51-.27-.72t-.93-.21l-1.52.05q-1.14 0-1.73.37 1.17.54 1.17 1.71v4.43a1.5 1.5 0 0 1-.53 1.04q-.48.42-1.07.42-.8 0-1.22-.73a26 26 0 0 1-3.1-5.63l-.23-.66-3.55-.02q-.35 0-.38.03-.04.04-.04.22 0 .22.05.48l.56 1.4q2.23 5.46 4.86 8.6 2.62 3.15 5.16 3.15h2.66q.16 0 .24-.09t.13-.34l.06-.25.5-2.21q.22-.45.38-.6.3-.29.69-.28.64 0 1.3.73l2.27 2.71q.22.33.45.33h4.4q.8 0 .8-.38a.5.5 0 0 0-.08-.25l-3.87-4.55q-.45-.53-.45-1.13 0-.61.43-1.16.35-.51 1.34-1.67 1-1.17 1.75-2.19t.98-1.85l.08-.33-.02-.16q0-.11-.03-.19h-4.18q-.4.15-.64.45l-.17.48q-.66 1.74-3.5 5.36-.55.5-1.3.5"></path></svg><svg fill="none" viewBox="0 0 26 29" id="icon-wash"><path fill="#fff" d="M10.86 0c-1.63 0-2.9 1.37-2.9 3.1s1.27 3.1 2.9 3.1 2.9-1.37 2.9-3.1-1.27-3.1-2.9-3.1m0 1.19c1 0 1.72.84 1.72 1.91 0 1-.79 1.91-1.72 1.91-1 0-1.72-.84-1.72-1.91 0-1 .78-1.91 1.72-1.91m-10.86 23.7c0 1.19.4 2.19 1.36 3 1 .87 2.17.8 2.17.8h19c.78 0 1.82-.39 2.63-1.47.84-1 .79-2.37.79-2.37v-17.32c0-.44-.11-.6-.74-.6-.64 0-.7.27-.7.6v17.31a2.5 2.5 0 0 1-.73 1.74c-.74.63-1.45.54-1.45.54s-18.1 0-19-.02c-.35-.07-.91-.2-1.46-.92-.5-.72-.4-1.64-.4-1.64v-17.32c0-.46-.24-.64-.73-.64q-.74-.01-.74.59zm16.3-16.41c-1.1.24-2.18.38-4.26 2.37s-3.62 1.91-5.16 1.82-3.17-1.55-3.44-1.91c-.34-.36-.9-.12-1.09.12-.15.23-.15.64.11 1 1.27 1.18 2.45 2.1 4.7 2.28a7.5 7.5 0 0 0 5.9-2.28c1.44-1.46 2.16-1.73 3.25-1.91a6.3 6.3 0 0 1 5.07 1.27c1 1.1 1.26.79 1.54.48.54-.72-.23-1.28-1.09-1.92a7.2 7.2 0 0 0-5.52-1.28zm-9.06 7.2c-1.18 0-2.08 1-2.08 2.28s.9 2.28 2.08 2.28 2.08-1 2.08-2.28-.9-2.28-2.08-2.28m11.77.79c-1.54 0-2.8 1.36-2.8 3 0 1.65 1.26 3.01 2.8 3.01s2.8-1.36 2.8-3c0-1.65-1.26-3.01-2.8-3.01m0 1.45c.8 0 1.44.7 1.44 1.55 0 .87-.65 1.55-1.44 1.55-.8 0-1.45-.7-1.45-1.55s.65-1.55 1.45-1.55"></path></svg><svg fill="none" viewBox="0 0 28 22" id="icon-youtube"><path fill="#666" d="m17.85 10.8-5.24-3.5a.65.65 0 0 0-1.01.55v6.98a.65.65 0 0 0 1.01.54l5.24-3.49a.65.65 0 0 0 0-1.09m-4.94 2.8v-4.51l3.4 2.27zm12.48-8.56a2.4 2.4 0 0 0-1.45-1.63c-3.72-1.42-9.69-1.4-9.94-1.4s-6.22-.02-9.94 1.4a2.4 2.4 0 0 0-1.45 1.64 25 25 0 0 0-.61 6.3c0 3.26.33 5.22.61 6.3a2.4 2.4 0 0 0 1.45 1.63c3.72 1.43 9.69 1.4 9.94 1.4h.08c.75 0 6.31-.04 9.86-1.4a2.4 2.4 0 0 0 1.45-1.64c.28-1.07.61-3.03.61-6.3 0-3.25-.33-5.22-.61-6.29m-1.27 12.27a1.1 1.1 0 0 1-.65.74c-3.5 1.34-9.4 1.32-9.47 1.32s-5.98.02-9.47-1.32a1.1 1.1 0 0 1-.65-.74c-.27-1-.57-2.85-.57-5.97s.3-4.97.57-5.97a1.1 1.1 0 0 1 .65-.74c3.5-1.34 9.4-1.33 9.47-1.33s5.98-.02 9.47 1.32a1.1 1.1 0 0 1 .65.74c.27 1 .57 2.85.57 5.97s-.3 4.96-.57 5.97"></path></svg><svg fill="none" viewBox="0 0 27 34" id="logo-html-academy"><g clip-path="url(#logo-html-academy_0)"><path fill="#666" d="m13.64.02-.14-.02-13.5 1.4v24.61l13.5 7.99 13.5-7.99v-24.6zm11.6 25-11.74 6.94-11.73-6.94v-10.1l11.68 6.93.02 1.25-8.02-4.75v1.23l8.04 4.8.02 1.3-8.05-4.76v1.22l8.04 4.81 8.12-4.83v-5.22l3.62-2.15zm0-11.57-3.24 1.88-1.48.88-7.06-4.19-.01 1.23 6.04 3.57-.06.03-.13.07-.86.5-4.98-2.95-.01 1.22 3.93 2.33-.93.61-.02.01-2.97-1.74-.01 1.23 1.94 1.13-1.98 1.19-11.61-6.87 11.63-6.96zm0-1.22-11.81-6.93-11.66 6.92v-9.23l11.73-1.23 11.73 1.24z"></path></g><defs><clipPath id="logo-html-academy_0"><path fill="#fff" d="M0 0h27v34h-27z"></path></clipPath></defs></svg><svg fill="none" viewBox="0 0 118 21" id="logo-text"><path fill="#111" d="M1.42 19.22a7.92 7.92 0 0 1-1.4-5.06v-7.32c-.13-1.8.36-3.6 1.38-5.1.93-1.17 2.52-1.75 4.76-1.74 2.25 0 3.77.52 4.56 1.53a6.43 6.43 0 0 1 1.33 4.38v1.71h-4.14v-1.86c0-.49-.05-.98-.13-1.46a1.62 1.62 0 0 0-.47-.93 1.58 1.58 0 0 0-1.16-.36c-.3-.04-.6 0-.87.14a1.4 1.4 0 0 0-.63.6 5.2 5.2 0 0 0-.34 2.14v9.28a4.5 4.5 0 0 0 .39 2.14 1.52 1.52 0 0 0 1.45.71 1.33 1.33 0 0 0 1.4-.72c.25-.68.35-1.4.32-2.13v-1.95h4.13v1.69a6.93 6.93 0 0 1-1.23 4.5c-.87 1.05-2.39 1.59-4.56 1.59-2.16 0-3.85-.59-4.79-1.78Zm16.28-18.94h4.76l4 20.48h-3.94l-.72-4.53h-3.32l-.8 4.5h-4.01l4.03-20.45Zm3.66 13.38-1.26-8.23-1.25 8.23h2.51Zm8.18-10.3h-3.24v-3.08h10.75v3.08h-3.21v17.37h-4.3l.01-17.37Z"></path><path fill="#444" d="M45.46.28h8.15v2.13h-5.21v6.75h4.23v2.02h-4.23v7.5h5.26v2.05h-8.2v-20.45Zm10.56 0h2l6.02 13.58v-13.58h2.45v20.48h-1.89l-6-13.96v13.93h-2.49l-.09-20.45Zm13.7 0h8.14v2.13h-5.21v6.75h4.27v2.02h-4.23v7.5h5.23v2.05h-8.2v-20.45Zm10.55 0h4.23a7.16 7.16 0 0 1 4.68 1.28c1 .85 1.5 2.23 1.5 4.15 0 2.6-.87 4.2-2.6 4.77l3 10.25h-2.84l-2.76-9.6h-2.27v9.6h-2.94v-20.45Zm4.01 8.78c.97.09 1.93-.18 2.7-.74a3.45 3.45 0 0 0 .83-2.65 5.56 5.56 0 0 0-.3-1.95 1.84 1.84 0 0 0-1-1.05 4.89 4.89 0 0 0-2.05-.34h-1.29v6.77l1.11-.04Zm10.34 10.16a8.82 8.82 0 0 1-1.27-5.22v-6.82c-.03-1.32.13-2.64.5-3.9.3-.96.9-1.79 1.75-2.35a6.05 6.05 0 0 1 3.35-.83 5.41 5.41 0 0 1 4.19 1.44 6.69 6.69 0 0 1 1.28 4.51v.76h-2.75v-.61c.02-.76-.05-1.51-.18-2.26a2 2 0 0 0-.77-1.2 3.07 3.07 0 0 0-1.72-.4c-.65-.05-1.3.14-1.81.55-.42.38-.69.89-.77 1.44-.13.8-.19 1.61-.17 2.43v7.6a7.15 7.15 0 0 0 .59 3.36 2.83 2.83 0 0 0 2.26 1.03 2.9 2.9 0 0 0 2.22-1.11c.48-1.13.69-2.35.6-3.56v-1.44h-2.66v-2.04h5.31v10.12h-1.81l-.3-2.35a3.6 3.6 0 0 1-1.4 1.93 3.7 3.7 0 0 1-2.33.67 4.79 4.79 0 0 1-4.12-1.76Zm16.05-5.71-4.53-13.23h2.72l3.22 9.87 3.17-9.87h2.75l-4.5 13.23v7.22h-2.81l-.02-7.22Z"></path></svg><svg viewBox="0 0 30 30" fill="none" id="plus"><path stroke="#D3D3D3" stroke-width="2" d="M15 0v30m15-15h-30"></path></svg><svg viewBox="0 0 24 18" fill="none" id="thumb-arrows"><path d="M8 0L0 9L8 18V0Z" fill="#666666"></path><path d="M24 9L16 0V18L24 9Z" fill="#666666"></path></svg><svg viewBox="0 0 40 40" fill="none" id="thumb"><rect x="1" y="1" width="38" height="38" rx="19" fill="#fff"></rect><rect x="1" y="1" width="38" height="38" rx="19" stroke="#666" stroke-width="2"></rect><path d="m16 11-8 9 8 9v-18Zm16 9-8-9v18l8-9Z" fill="#666"></path></svg></svg>